<svg xmlns="http://www.w3.org/2000/svg" width="320" height="120" viewBox="0 0 320 120" role="img" aria-label="Amber Council">
  <title>Amber Council — horizontal lockup (monochrome via currentColor)</title>
  <g fill="none" stroke="currentColor" stroke-width="2.4" stroke-linejoin="round">
    <path d="M52 26 L94 56 L52 86 L10 56 Z"></path>
  </g>
  <g transform="translate(31.41,66.50) scale(0.01465,-0.01465)" fill="currentColor"><path transform="translate(0.0,0)" d="M1135 0V4Q1137 9 1138.0 19.0Q1139 29 1139 37Q1139 68 1130.5 105.5Q1122 143 1098 199L977 471Q921 473 828.0 473.0Q735 473 627 473Q548 473 474.5 473.0Q401 473 342 471L227 207Q212 170 195.0 126.0Q178 82 178 37Q178 24 180.0 15.5Q182 7 184 4V0H-20V4Q-2 23 25.0 71.5Q52 120 84 193L657 1464H737L1280 242Q1299 199 1319.5 158.5Q1340 118 1358.0 86.0Q1376 54 1390.0 32.0Q1404 10 1409 4V0ZM487 559Q545 559 606.0 559.5Q667 560 725.5 560.5Q784 561 838.0 561.5Q892 562 936 563L655 1198L379 559Z"/><path transform="translate(1484.6,0)" d="M1303 1214 1294 1210Q1216 1282 1106.5 1325.0Q997 1368 866 1368Q740 1368 635.0 1328.5Q530 1289 454.5 1214.0Q379 1139 337.0 1030.0Q295 921 295 782Q295 629 335.0 496.5Q375 364 454.0 267.0Q533 170 651.5 114.5Q770 59 928 59Q985 59 1042.0 71.0Q1099 83 1151.5 106.5Q1204 130 1250.5 163.5Q1297 197 1335 240L1346 233L1266 29Q1191 0 1100.5 -15.5Q1010 -31 918 -31Q733 -31 579.5 22.5Q426 76 315.5 174.0Q205 272 143.5 409.5Q82 547 82 715Q82 810 106.5 902.0Q131 994 178.0 1077.0Q225 1160 294.0 1229.5Q363 1299 451.5 1350.0Q540 1401 646.5 1429.5Q753 1458 877 1458Q1070 1458 1235 1399Z"/></g>
  <g transform="translate(128.00,48.00) scale(0.01123,-0.01123)" fill="currentColor"><path transform="translate(0.0,0)" d="M1135 0V4Q1137 9 1138.0 19.0Q1139 29 1139 37Q1139 68 1130.5 105.5Q1122 143 1098 199L977 471Q921 473 828.0 473.0Q735 473 627 473Q548 473 474.5 473.0Q401 473 342 471L227 207Q212 170 195.0 126.0Q178 82 178 37Q178 24 180.0 15.5Q182 7 184 4V0H-20V4Q-2 23 25.0 71.5Q52 120 84 193L657 1464H737L1280 242Q1299 199 1319.5 158.5Q1340 118 1358.0 86.0Q1376 54 1390.0 32.0Q1404 10 1409 4V0ZM487 559Q545 559 606.0 559.5Q667 560 725.5 560.5Q784 561 838.0 561.5Q892 562 936 563L655 1198L379 559Z"/><path transform="translate(2056.8,0)" d="M72 4Q83 20 97.0 51.5Q111 83 119 131Q130 201 143.5 288.5Q157 376 171.5 472.0Q186 568 200.5 668.5Q215 769 228.5 866.5Q242 964 254.5 1054.5Q267 1145 277.0 1220.0Q287 1295 293.5 1350.5Q300 1406 303 1434H430L1059 258L1683 1434H1778L1942 246Q1949 190 1957.0 150.0Q1965 110 1973.0 81.5Q1981 53 1988.5 34.5Q1996 16 2003 4V0H1751V4Q1756 15 1760.5 40.0Q1765 65 1765 100Q1765 113 1764.0 126.5Q1763 140 1761 156L1634 1114L1044 4L975 12L381 1124Q346 887 320 686Q309 600 298.0 514.5Q287 429 278.5 355.0Q270 281 265.0 224.5Q260 168 260 141Q260 107 262.0 81.0Q264 55 266 37Q269 16 272 0H72Z"/><path transform="translate(4809.7,0)" d="M172 1042Q172 1127 170.0 1190.5Q168 1254 164.0 1300.5Q160 1347 154.5 1378.0Q149 1409 143 1430V1434Q163 1433 185 1433Q204 1432 227.5 1432.0Q251 1432 276 1432Q312 1432 373.5 1439.0Q435 1446 532 1446Q622 1446 698.0 1422.5Q774 1399 829.5 1355.0Q885 1311 916.5 1246.5Q948 1182 948 1100Q948 1031 929.0 976.5Q910 922 875.5 881.5Q841 841 792.5 813.5Q744 786 686 770Q771 757 841.0 726.5Q911 696 961.5 650.0Q1012 604 1039.5 542.5Q1067 481 1067 406Q1067 195 928.0 89.5Q789 -16 512 -16Q482 -16 442.0 -13.5Q402 -11 360.5 -8.0Q319 -5 279.0 -2.5Q239 0 209 0H143V4Q149 25 154.5 56.0Q160 87 164.0 133.0Q168 179 170.0 242.5Q172 306 172 391ZM539 709Q471 709 425.0 704.0Q379 699 354 694V391Q354 274 358.0 198.0Q362 122 369 74Q407 69 445.0 65.0Q483 61 506 61Q693 61 779.5 144.5Q866 228 866 401Q866 469 845.5 525.5Q825 582 784.5 623.0Q744 664 682.5 686.5Q621 709 539 709ZM354 784Q382 781 404.0 780.5Q426 780 451 780Q519 780 575.0 799.5Q631 819 670.5 858.0Q710 897 732.0 955.5Q754 1014 754 1092Q754 1157 738.0 1210.0Q722 1263 690.5 1300.5Q659 1338 613.0 1358.0Q567 1378 508 1378Q470 1378 441.5 1375.0Q413 1372 393 1368Q370 1364 354 1358Z"/><path transform="translate(6626.5,0)" d="M143 1434Q268 1434 391.5 1435.0Q515 1436 618.0 1437.5Q721 1439 794.0 1442.0Q867 1445 893 1450L844 1317Q811 1326 767 1333Q729 1339 674.5 1344.5Q620 1350 549 1350Q525 1350 491.5 1348.5Q458 1347 427 1345Q391 1343 354 1341V795Q457 796 540.0 801.0Q623 806 681 811Q749 817 801 825L770 680Q701 689 629 697Q567 704 494.0 709.5Q421 715 354 715V88Q472 88 571.0 98.0Q670 108 744 121Q830 135 901 154L872 -8Q860 -7 836.0 -6.0Q812 -5 782.5 -4.0Q753 -3 720.5 -2.5Q688 -2 659.0 -1.5Q630 -1 607.5 -0.5Q585 0 575 0H143V4Q149 25 154.5 56.0Q160 87 164.0 133.0Q168 179 170.0 242.5Q172 306 172 391V1042Q172 1127 170.0 1190.5Q168 1254 164.0 1300.5Q160 1347 154.5 1378.0Q149 1409 143 1430V1434Z"/><path transform="translate(8298.3,0)" d="M354 391Q354 306 356.5 242.5Q359 179 362.5 133.0Q366 87 371.5 56.0Q377 25 383 4V0H143V4Q149 25 154.5 56.0Q160 87 163.5 133.0Q167 179 169.5 242.0Q172 305 172 391V1042Q172 1127 169.5 1190.5Q167 1254 163.5 1300.0Q160 1346 154.5 1377.5Q149 1409 143 1430V1434L185 1430Q204 1428 227.5 1427.5Q251 1427 276 1427Q315 1427 381.5 1436.5Q448 1446 551 1446Q647 1446 728.5 1420.0Q810 1394 870.0 1344.0Q930 1294 963.5 1221.5Q997 1149 997 1057Q997 985 978.5 923.5Q960 862 926.5 812.0Q893 762 846.0 723.5Q799 685 741 659L1092 166Q1118 129 1140.5 102.0Q1163 75 1183.5 55.5Q1204 36 1223.0 23.5Q1242 11 1262 4V0H973Q970 19 953.5 50.5Q937 82 915 113L561 612Q538 610 515.0 608.5Q492 607 468 607Q440 607 411.5 609.0Q383 611 354 616ZM354 694Q381 688 409.0 685.5Q437 683 463 683Q538 683 600.0 705.5Q662 728 705.5 774.0Q749 820 773.0 888.5Q797 957 797 1049Q797 1124 780.0 1185.0Q763 1246 729.5 1288.5Q696 1331 645.0 1354.5Q594 1378 526 1378Q457 1378 416.0 1371.0Q375 1364 354 1356Z"/></g>
  <g transform="translate(128.00,80.00) scale(0.01123,-0.01123)" fill="currentColor"><path transform="translate(0.0,0)" d="M1303 1214 1294 1210Q1216 1282 1106.5 1325.0Q997 1368 866 1368Q740 1368 635.0 1328.5Q530 1289 454.5 1214.0Q379 1139 337.0 1030.0Q295 921 295 782Q295 629 335.0 496.5Q375 364 454.0 267.0Q533 170 651.5 114.5Q770 59 928 59Q985 59 1042.0 71.0Q1099 83 1151.5 106.5Q1204 130 1250.5 163.5Q1297 197 1335 240L1346 233L1266 29Q1191 0 1100.5 -15.5Q1010 -31 918 -31Q733 -31 579.5 22.5Q426 76 315.5 174.0Q205 272 143.5 409.5Q82 547 82 715Q82 810 106.5 902.0Q131 994 178.0 1077.0Q225 1160 294.0 1229.5Q363 1299 451.5 1350.0Q540 1401 646.5 1429.5Q753 1458 877 1458Q1070 1458 1235 1399Z"/><path transform="translate(2053.8,0)" d="M797 1458Q964 1458 1105.5 1403.5Q1247 1349 1350.0 1250.5Q1453 1152 1511.0 1014.0Q1569 876 1569 709Q1569 614 1547.0 522.0Q1525 430 1482.5 348.0Q1440 266 1378.0 196.5Q1316 127 1236.5 76.5Q1157 26 1061.0 -2.5Q965 -31 854 -31Q687 -31 545.5 22.5Q404 76 301.0 174.0Q198 272 140.0 409.5Q82 547 82 715Q82 810 104.0 902.0Q126 994 168.5 1077.0Q211 1160 272.5 1229.5Q334 1299 413.5 1350.0Q493 1401 589.5 1429.5Q686 1458 797 1458ZM854 59Q965 59 1057.0 99.0Q1149 139 1215.5 215.0Q1282 291 1319.0 400.5Q1356 510 1356 649Q1356 803 1320.5 934.5Q1285 1066 1215.0 1162.5Q1145 1259 1040.5 1313.5Q936 1368 797 1368Q686 1368 594.0 1328.5Q502 1289 435.5 1214.0Q369 1139 332.0 1030.0Q295 921 295 782Q295 629 330.0 496.5Q365 364 435.0 267.0Q505 170 610.0 114.5Q715 59 854 59Z"/><path transform="translate(4372.7,0)" d="M1169 1042Q1169 1127 1167.0 1190.5Q1165 1254 1161.0 1300.5Q1157 1347 1152.0 1378.0Q1147 1409 1141 1430V1434H1319V1430Q1313 1409 1307.5 1378.0Q1302 1347 1298.5 1300.5Q1295 1254 1292.5 1190.5Q1290 1127 1290 1042V502Q1290 359 1249.0 258.0Q1208 157 1135.0 92.5Q1062 28 960.0 -1.5Q858 -31 737 -31Q616 -31 511.5 -3.0Q407 25 329.5 87.5Q252 150 208.0 249.5Q164 349 164 492V1042Q164 1127 162.0 1190.5Q160 1254 156.0 1300.5Q152 1347 146.5 1378.0Q141 1409 135 1430V1434H375V1430Q369 1409 363.5 1378.0Q358 1347 354.0 1300.5Q350 1254 348.0 1190.5Q346 1127 346 1042V481Q346 362 381.5 284.5Q417 207 475.0 161.5Q533 116 607.0 98.0Q681 80 758 80Q835 80 909.0 98.0Q983 116 1040.5 161.5Q1098 207 1133.5 284.5Q1169 362 1169 481Z"/><path transform="translate(6494.5,0)" d="M199 1434 1229 338V1042Q1229 1127 1227.0 1190.5Q1225 1254 1221.0 1300.5Q1217 1347 1211.5 1378.0Q1206 1409 1200 1430V1434H1378V1430Q1372 1409 1367.0 1378.0Q1362 1347 1358.0 1300.5Q1354 1254 1352.0 1190.5Q1350 1127 1350 1042V-20H1315L285 1075V391Q285 306 287.0 242.5Q289 179 293.0 133.0Q297 87 302.0 56.0Q307 25 313 4V0H135V4Q141 25 146.5 56.0Q152 87 156.0 133.0Q160 179 162.0 242.5Q164 306 164 391V1042Q164 1127 162.0 1190.5Q160 1254 156.0 1300.5Q152 1347 146.5 1378.0Q141 1409 135 1430V1434Z"/><path transform="translate(8675.3,0)" d="M1303 1214 1294 1210Q1216 1282 1106.5 1325.0Q997 1368 866 1368Q740 1368 635.0 1328.5Q530 1289 454.5 1214.0Q379 1139 337.0 1030.0Q295 921 295 782Q295 629 335.0 496.5Q375 364 454.0 267.0Q533 170 651.5 114.5Q770 59 928 59Q985 59 1042.0 71.0Q1099 83 1151.5 106.5Q1204 130 1250.5 163.5Q1297 197 1335 240L1346 233L1266 29Q1191 0 1100.5 -15.5Q1010 -31 918 -31Q733 -31 579.5 22.5Q426 76 315.5 174.0Q205 272 143.5 409.5Q82 547 82 715Q82 810 106.5 902.0Q131 994 178.0 1077.0Q225 1160 294.0 1229.5Q363 1299 451.5 1350.0Q540 1401 646.5 1429.5Q753 1458 877 1458Q1070 1458 1235 1399Z"/><path transform="translate(10729.1,0)" d="M152 4Q158 25 163.0 56.0Q168 87 172.0 133.0Q176 179 178.0 242.5Q180 306 180 391V1042Q180 1127 178.0 1190.5Q176 1254 172.0 1300.5Q168 1347 163.0 1378.0Q158 1409 152 1430V1434H391V1430Q385 1409 379.5 1378.0Q374 1347 370.5 1300.5Q367 1254 364.5 1190.5Q362 1127 362 1042V391Q362 306 364.5 242.5Q367 179 370.5 133.0Q374 87 379.5 56.0Q385 25 391 4V0H152Z"/><path transform="translate(11940.0,0)" d="M354 88Q472 88 571.0 98.0Q670 108 744 121Q830 135 901 154L872 -8Q860 -7 836.0 -6.0Q812 -5 782.5 -4.0Q753 -3 720.5 -2.5Q688 -2 659.0 -1.5Q630 -1 607.5 -0.5Q585 0 575 0H143V4Q149 25 154.5 56.0Q160 87 164.0 133.0Q168 179 170.0 242.5Q172 306 172 391V1042Q172 1127 170.0 1190.5Q168 1254 164.0 1300.5Q160 1347 154.5 1378.0Q149 1409 143 1430V1434H383V1430Q377 1409 371.5 1378.0Q366 1347 362.5 1300.5Q359 1254 356.5 1190.5Q354 1127 354 1042Z"/></g>
</svg>
