<svg xmlns="http://www.w3.org/2000/svg" width="84" height="84" viewBox="0 0 84 84" role="img" aria-label="Amber Council avatar">
  <title>Amber Council — avatar</title>
  <circle cx="42" cy="42" r="42" fill="#11283F"></circle>
  <g fill="none" stroke="#C89B41" stroke-width="2" stroke-linejoin="round">
    <path d="M42 15 L72 42 L42 69 L12 42 Z"></path>
  </g>
  <g transform="translate(26.97,49.70) scale(0.01074,-0.01074)" fill="#C89B41"><path transform="translate(0.0,0)" d="M1135 0V4Q1137 9 1138.0 19.0Q1139 29 1139 37Q1139 68 1130.5 105.5Q1122 143 1098 199L977 471Q921 473 828.0 473.0Q735 473 627 473Q548 473 474.5 473.0Q401 473 342 471L227 207Q212 170 195.0 126.0Q178 82 178 37Q178 24 180.0 15.5Q182 7 184 4V0H-20V4Q-2 23 25.0 71.5Q52 120 84 193L657 1464H737L1280 242Q1299 199 1319.5 158.5Q1340 118 1358.0 86.0Q1376 54 1390.0 32.0Q1404 10 1409 4V0ZM487 559Q545 559 606.0 559.5Q667 560 725.5 560.5Q784 561 838.0 561.5Q892 562 936 563L655 1198L379 559Z"/><path transform="translate(1472.8,0)" d="M1303 1214 1294 1210Q1216 1282 1106.5 1325.0Q997 1368 866 1368Q740 1368 635.0 1328.5Q530 1289 454.5 1214.0Q379 1139 337.0 1030.0Q295 921 295 782Q295 629 335.0 496.5Q375 364 454.0 267.0Q533 170 651.5 114.5Q770 59 928 59Q985 59 1042.0 71.0Q1099 83 1151.5 106.5Q1204 130 1250.5 163.5Q1297 197 1335 240L1346 233L1266 29Q1191 0 1100.5 -15.5Q1010 -31 918 -31Q733 -31 579.5 22.5Q426 76 315.5 174.0Q205 272 143.5 409.5Q82 547 82 715Q82 810 106.5 902.0Q131 994 178.0 1077.0Q225 1160 294.0 1229.5Q363 1299 451.5 1350.0Q540 1401 646.5 1429.5Q753 1458 877 1458Q1070 1458 1235 1399Z"/></g>
</svg>
